<svg version="1" xmlns="http://www.w3.org/2000/svg" width="1333.333" height="1333.333" viewBox="0 0 1000.000000 1000.000000"><path d="M740.7 78.6c-.2.2-2.6.6-5.3.9-7.7.8-15.1 1.9-22.4 3.5-2.5.5-5.6 1.2-7 1.4-15.8 2.9-46.4 15.4-66 27-10.1 5.9-28 18.6-28 19.8 0 .4-.4.8-1 .8-.5 0-2.6 1.5-4.7 3.2-6.2 5.5-90.2 89.7-115.8 116.2-13.2 13.7-29.2 30.2-35.5 36.7-6.3 6.5-20.5 21.1-31.5 32.4-11 11.4-25.2 25.9-31.5 32.4-36.1 36.9-38.8 40-39.6 44.4-1.4 7.8-1.1 10.4 2.7 18.2 4.1 8.3 17.3 19.6 26.7 22.6 2 .6 4.2 1.5 4.7 1.9.6.4 2.6 1 4.5 1.3 1.9.3 4.6.9 6 1.3 1.4.3 8.2.8 15.1.9 10.8.3 15.3-.1 21.4-1.9 5.7-1.6 9.5-3 9.5-3.5 0-.3 1.5-1.3 3.3-2 1.7-.8 3.7-2 4.3-2.5.7-.6 2.5-2 4-3.1 3.7-2.5 48-47.5 46.8-47.5-.1 0 2.3-2.6 5.3-5.8 3-3.1 9.8-10.3 15.2-16 44-47.1 49.8-52.7 56.8-56.2 3.6-1.7 7.1-2.9 7.9-2.6.7.3 1.6 0 2-.6.8-1.2 15.6-.5 21.4 1.1 5.1 1.3 14.4 4.7 17.2 6.2 1.2.7 2.9 1.4 3.7 1.5.8.2 1.7.6 2 1.1.3.4 2.6 1.9 5.1 3.2 2.5 1.3 6.4 3.7 8.8 5.3 2.4 1.5 4.5 2.8 4.8 2.8.3 0 2.8 1.7 5.7 3.9 21.2 15.6 37.5 17.9 50.7 7.2 4.4-3.5 28.1-27.2 56.5-56.2 15.3-15.7 17.3-17 25.8-15.7 5.4.7 10.9 4.4 13.1 8.7 2.3 4.3 2.6 12.2.7 15.9-2.3 4.4-48.9 52.7-68.3 70.8-14.6 13.6-31.9 20.6-47.7 19.2-2.8-.3-5.1-.3-5.1 0s4.2 4.8 9.4 10.1c8.6 8.9 13.6 14.2 16.1 17.4.6.6 2.9 3.4 5.1 6.2 5.8 7 16.5 22.8 22.3 32.8 4.8 8.3 14.3 26.7 14.2 27.7 0 .3.8 2.3 1.8 4.5 2.2 5.1 7.5 20.1 8 22.7.1.5.8 2.5 1.5 4.5.8 2.1 2.2 6.9 3.1 10.7 1.7 6.8 2 8.6 3 13.6.3 1.4.7 3.6 1 5 .3 1.4.8 4.5 1.1 7 .3 2.5.7 5.2.9 6 2.5 9.3 2.6 52.4.2 70-1.2 8.7-2 13.7-2.3 15.5-.3 1.1-.7 3.5-1 5.3-.3 1.8-1.1 5.6-1.9 8.5-.7 2.9-1.2 5.4-1 5.6.9.9 174.7-174.2 182.6-183.9 10-12.4 19-26.2 25.7-39.1 4.9-9.6 11.5-24.2 11.8-26.3.1-.6.6-2.2 1.2-3.6.5-1.4 1-2.7 1-3 0-.3.9-2.8 2-5.6 1.1-2.7 2.2-6.3 2.5-8 .3-1.6 1.2-5.6 2.1-8.9.8-3.3 1.8-7.5 2.1-9.4.3-1.9.7-3.7.9-4 .2-.3.7-3.5 1-7.1.4-3.6 1.1-9.4 1.5-13 .9-6.7.6-41.8-.3-48-.3-1.9-.7-5.1-1-7-.2-1.9-.7-5-1-6.8-.3-1.7-.8-4.4-1.1-6-.9-4.9-1.3-6.6-3.9-16.6-1.5-5.5-3-10.4-3.4-11-.3-.6-.8-1.9-.9-3-1.1-7.1-16.2-38.5-24.4-50.9-2.1-3.2-3.9-6.3-3.9-6.8s-.4-.9-.8-.9-1.5-1.2-2.4-2.8c-6.1-10.1-27.1-32.8-41.3-44.7-3.3-2.8-6.2-5.2-6.5-5.5-.7-.7-5.5-4-15-10.3-4.7-3.2-8.9-6-9.5-6.5-3.1-2.4-28.6-14.5-38-17.9-11.2-4.1-23-7.8-27.5-8.7-1.4-.2-6-1.2-10.3-2.1-4.3-.9-9.7-1.8-12-2-2.3-.3-5.3-.8-6.7-1.1-2.8-.7-47.6-1.4-48.3-.8z"/><path d="M218.9 82.4c-.2.2-3.1.6-6.4.9-10 1.1-19.4 2.7-34.5 6.2-7.7 1.8-30.3 9.6-31.1 10.8-.3.5-1 .9-1.5.9-2.9.1-28.4 12.7-28.4 14 0 .4-.5.8-1.2.8-2.8 0-27.3 17.9-37.5 27.4-9.9 9.1-20.4 20.2-25.3 26.6-1.4 1.8-3.3 4.2-4.2 5.4-3 3.6-3.2 3.9-8.1 10.9-2.6 3.7-4.7 7-4.7 7.3 0 .3-.8 1.8-1.9 3.2-5.7 8.1-20.9 41-22.6 49.2-.1.3-.9 3-1.9 6-.9 3-2 6.6-2.2 8-.3 1.4-.9 4.1-1.4 6-.5 1.9-1.2 5.1-1.5 7-.3 1.9-.8 4.3-1.1 5.2-.3.9-.7 3.4-.9 5.5-.3 2.1-.8 6.9-1.2 10.8-1.5 13.3-.7 53.1 1.2 58.7.2.7.6 3.1.9 5.3 1.2 8.6 3.1 17.1 6.3 27.5 1.4 4.7 2.6 8.9 2.8 9.5.1.5.6 1.9 1 3 .5 1.1 2.3 5.6 4 10 3.6 9 7.6 17.7 8.4 18.5.3.3 1.6 2.7 2.9 5.4 1.2 2.6 4.1 7.5 6.2 10.8 2.2 3.3 4 6.2 4 6.4 0 .5 4.1 6.6 5 7.4.3.3 1.7 2.1 3 4s2.7 3.7 3 4c.3.3 2.1 2.5 4.1 5 2 2.5 4.6 5.6 5.8 7 3.8 4.4 71.4 72 72 72 .3 0 15.2-14.6 33.1-32.6 17.9-17.9 35.2-34.4 38.5-36.8 5.2-3.7 16.4-9.8 18.8-10.2.4-.1.9-.3 1.2-.4.3-.1.8-.3 1.3-.4.4-.1 1.7-.5 3-1 1.2-.4 3.4-.9 5-1.1 1.5-.2 2.7-.4 2.7-.5 0-1.1 19.6-1.6 25.5-.6 8.5 1.3 10.7 1.9 16 3.9 11.8 4.4 24.5 12.9 31.3 20.9 6.8 8.1 8.7 10.6 8.7 11.6 0 .6.4 1.2.8 1.4 1 .4 7 12.9 7.5 15.5.2 1 .7 2.5 1 3.3 2.5 6.7 4 25.7 2.4 33l-.5 2.6 11.7-.2c19.1-.4 33.7 3.9 48.6 14.4 4.3 3.1 17.5 15.7 17.5 16.7 0 .4 4.3 7.2 5.7 9 1.7 2.1 6.7 14.9 7.9 20 1.9 8.1 2.4 24.3 1 33.7l-.7 4.8 4.8-.7c6.2-.9 16.4-.9 23.1 0 5.1.7 5.4.6 9.2-2.9 13.7-12.7 35.2-12 47.7 1.6 3 3.3 7.3 12 8 16.2.3 1.8.6 3.9.7 4.7.7 4.5-3.8 19-6.5 20.6-.7.5-.5 1.5.6 3.1.8 1.3 1.3 2.4.9 2.4s-.1.7.6 1.5.9 1.5.5 1.5-.3.6.3 1.3c1.2 1.4 4 11.2 4.9 16.7.7 5 .6 21.6-.1 24.6-.6 2.3-.4 2.5 1.1 1.9 1-.4 7.2-.9 13.8-1.1 10.9-.3 15.1.2 26.6 3 2.7.7 12.2 4.9 14.9 6.5 1.4.9 3.2 2 4.1 2.6 9.2 5.7 19.6 16.4 25 25.7 2.4 4 4.4 7.5 4.5 7.7.8 1 30.7-17.2 37.1-22.6 1.2-1 3.7-2.9 5.4-4.3 11.3-8.6 33.8-31 40.9-40.5 2.5-3.3 4.8-6.2 5.2-6.3.5-.2.8-.8.8-1.2 0-.5 1.9-3.7 4.3-7.2s5.8-9 7.6-12.3c1.8-3.3 3.8-6.6 4.3-7.3.6-.6.7-1.2.2-1.2-.5 0-.4-.4.1-.8.9-.6 3.4-5.2 4-7.2.1-.3 1.2-2.8 2.4-5.5 6.1-13.4 14.4-41 16.6-55 .8-5.5 1.5-10.2 2.2-15 1.1-8.7.5-57-.7-57-.1 0-.3-1.1-.5-2.5-1.3-9.8-1.8-12.7-2.7-14.3-.5-.9-.7-1.7-.5-1.7.3 0-.4-3.5-1.4-7.8-1.1-4.2-2.2-8.8-2.5-10.2-.3-1.3-1-3-1.6-3.7-.6-.8-.8-1.6-.5-2 .4-.3.3-1.1-.2-1.7-.4-.6-1.6-3.6-2.6-6.6-1-3-2.8-7.6-4.2-10.2-1.3-2.7-2.4-5.1-2.4-5.5-.2-2.6-11.7-23.7-18.4-33.8-12.4-18.8-16.1-22.8-66.2-73l-38.1-38.2-2.4 2.2c-1.3 1.2-7.2 7.5-13.3 14-6 6.5-13 14-15.5 16.6-2.5 2.6-9.7 10.2-16 16.9-6.3 6.8-14 14.9-17 18.1-3 3.2-10 10.6-15.5 16.5-15.9 17.1-30.6 31.6-35.8 35.4-2.6 1.9-6 4.5-7.5 5.7-1.5 1.3-3 2.3-3.5 2.3-.4 0-2.4 1-4.5 2.3-3.2 2-14.2 6.9-16.4 7.3-.5.1-.9.2-1 .4-.4.2-3.8 1-6.3 1.3-1.2.2-2.5.5-3 .8-1.5.7-7.1 1.2-15.2 1.3-4 .1-7.3.5-7.3.9 0 .5-.5.5-1.1.1-.7-.4-3.9-.8-7.3-1-6.5-.3-12.8-1-15.5-1.8-.9-.3-2.7-.7-4.1-1-11.5-2.3-30.3-10.5-35.9-15.7-1.1-1-2.4-1.9-2.8-1.9-.4 0-1.6-.9-2.8-2-1.1-1.1-3.6-3.5-5.5-5.3-4.9-4.8-8.6-9.1-10-11.8-.7-1.3-1.6-2.6-2-2.9-1.2-.8-6.8-13.2-7.9-17.5-2.4-9.2-3.3-19.5-1.9-23.3.5-1.6.5-2.1-.3-1.6-.8.4-.8 0 0-1.5.7-1.1.9-2.1.7-2.1-1.1 0 4.7-13.8 7.8-18.5 1.8-2.8 7.8-9.6 13.2-15.1 5.4-5.6 20.3-20.8 32.9-33.9 12.7-13 28.8-29.6 35.8-36.9 7-7.2 22.3-23 34-35 11.7-12.1 23.8-24.5 27-27.7l5.7-5.7-33.8-33.8c-18.7-18.7-36.8-36.6-40.3-39.9-15.1-14.1-33.8-27-53.8-37.1-13.6-6.7-17.3-8.3-32.1-13.4-5.7-1.9-19.7-5.8-24-6.6-1.4-.3-3.2-.7-4.1-1-.9-.2-3.4-.7-5.5-.9-2.2-.3-5.5-.8-7.4-1.1-1.9-.3-4.8-.8-6.5-1.1-3.4-.5-46.1-1.3-46.6-.9zm-61.5 115c6.7 1.2 12.4 5.6 29.3 22.4l17.3 17.3 16.4-16.3c19.9-19.7 18.8-18.8 25.5-21.7 4-1.7 7.3-2.3 12.7-2.3 4 0 7.7.3 8.3.7.6.3 1.9.8 3 1 2.3.4 8.8 4.5 11.6 7.3 6.3 6.2 9.5 13.1 10 21.4.7 12.1-2.6 19.3-13.6 30.2-4.3 4.4-7.9 8-7.9 8.1 0 .2-4 4.2-9 9.1-4.9 4.8-9 9.1-9 9.6 0 .4 7.5 8.4 16.8 17.6 20.1 20.3 23 25 22.7 37.7-.3 16.4-11.6 29.3-28 32-4.7.8-6.2.8-10.5.1-9.1-1.7-12.9-4.4-31.1-22.3-15.8-15.6-19.9-19-19.9-16.5 0 1.4-30.6 31.3-35.1 34.3-4.1 2.7-11.4 4.8-16.9 5-14.6.3-28.7-10.2-32.3-24.2-1.5-5.8-1.5-16.8-.1-19.1.5-.7.9-1.5 1-1.8.9-4.5 4.9-9.3 22.5-26.9l15.7-15.8-16.8-16.8c-19.5-19.5-23-24.8-23.5-35.7-.5-9.8 2.5-17.6 9.4-24.8 8.4-8.7 18.8-11.9 31.5-9.6zM603 537.5c19.9 9.9 25.2 33.9 11.3 51.2-14.3 18-44.5 14.8-54.7-5.7-3.4-6.9-3.8-8.9-3.8-16.7 0-10.6 6.8-22.3 15.7-27 1.7-.9 3.2-2 3.5-2.4.3-.5 2.4-1.1 4.5-1.5 2.2-.3 4.2-.7 4.3-.9.2-.2 3.4-.2 7.1-.1 4.8.3 8.1 1.1 12.1 3.1zm-105.7 3.3c8.4 3.7 16 12.6 18.4 21.3 1.1 4.1.6 17.3-.7 20.4-.7 1.6-1.3 3.3-1.2 3.7.1.5-.2.8-.7.8-.5 0-1.2.8-1.5 1.8-1.1 3.4-8.1 9.5-14.1 12.3-16.9 8-36.2.6-44.6-17-3.4-7.1-3.2-18.7.4-26.6 4.6-9.8 14.8-17.8 24.3-19 2.1-.3 3.9-.7 4.1-.9.8-.8 11.5 1.4 15.6 3.2zm99.9 100.9c4.9 1.9 4.7 1.9 10.6 6.9 8.9 7.7 12.6 20.4 9.5 32.5-2.4 9.4-8.5 16.9-17.7 21.7-4.4 2.3-6.3 2.6-14.1 2.6-7.2 0-10-.4-13.9-2.2-6.4-2.9-12.9-9.3-16-15.6-6.1-12.6-4.6-25.2 4.3-36.3 8.1-10.3 24.8-14.6 37.3-9.6z"/><path d="M239.6 501.6c-11.1 2.6-14.8 5.7-51.4 42.3-35.7 35.6-39.5 39.7-43 46.6-3.9 7.9-5.2 20.6-3 29.5 1.1 4.1 4.4 11.5 6.1 13.7 3.7 4.7 10.4 11.3 11.4 11.3.6 0 1.3.3 1.5.7.2.5 1.7 1.5 3.3 2.4 12.9 7.1 31.9 5.9 44.6-2.8 4.2-2.9 63.3-61.3 73.2-72.3 4.9-5.4 9.1-13.4 10.3-19.2 1.2-5.8.9-17-.4-21.2-4.7-14.7-16.1-26.2-30.2-30.5-5.7-1.7-16.1-2-22.4-.5zM336.5 593.2c-2.7.5-5.8.9-6.7 1-1 .1-1.8.6-1.8 1s-.6.8-1.4.8c-1.5 0-4.4 1.4-9.1 4.5-3.7 2.4-94 92.7-97.5 97.6-2.4 3.2-3.5 5.4-5.9 11.1-1.9 4.4-2.3 7-2.3 14.2-.1 12.9 5.7 25.4 15.2 33.2 1.9 1.6 3.7 3.1 4 3.4.7.9 10 5.1 12.4 5.7 1.2.3 5.5.8 9.8 1 14.8.9 24.1-3.5 39.3-18.8 5.4-5.4 9.9-9.9 10-9.9 1 0 75.1-75.4 76.7-78 6.2-10.1 8.3-24.3 5.2-35-1.7-6-6-13.9-9.8-18.2-3.3-3.7-13.4-10.3-18-11.8-5.9-1.9-14.5-2.6-20.1-1.8zM426.2 691.5c-11.8 2.7-14.4 4.9-52.4 42.8-19.7 19.6-35.8 35.9-35.8 36.2 0 .2-1.1 1.6-2.5 3-1.3 1.5-2.9 4.2-3.5 6.1-.6 1.9-1.5 3.4-1.9 3.4-.4 0-.8.6-.8 1.2 0 .7-.5 3.7-1.2 6.6-3.9 15.8 3.8 34.9 17.7 44.3 8.1 5.5 13.3 7.1 24.3 7.5 10.9.4 21.4-3.4 29.2-10.6 1.5-1.4 18.2-17.9 37.1-36.7 23.6-23.5 35.4-35.9 37.5-39.6 10.2-17.9 6-42.1-9.5-54.7-11.3-9.2-25-12.5-38.2-9.5zM529.8 782.5c-.2.2-1.9.5-3.8.8-6.5 1-13.7 3.7-18.1 6.8-2.4 1.8-17.3 16.2-33.1 32-26.4 26.6-29 29.5-32.5 36.6-3.7 7.5-3.8 7.9-3.8 18.7 0 10.6.2 11.4 3.4 18.1 5.5 11.3 17.6 21.5 28.7 24.1 5.3 1.2 16.8 1.1 22.1-.3 10.4-2.7 15-6.4 46.1-37.7 16.9-17.1 30.5-31.6 31.5-33.6 4.7-10.4 5-11.6 5-22.6 0-8-.5-10.3-4.5-19.3-4.8-10.7-20.1-21.6-31.9-22.7-2.9-.3-6.2-.6-7.1-.8-.9-.2-1.8-.3-2-.1z"/></svg>