<svg width="500" height="422" viewBox="0 0 500 422" fill="none" xmlns="http://www.w3.org/2000/svg">
<g clip-path="url(#clip0)">
<path fill-rule="evenodd" clip-rule="evenodd" d="M34.7318 36.8774C19.2423 52.3669 8.90686 71.0587 3.72545 90.8217C-6.36132 130.269 4.03459 173.874 34.9132 204.753L65.9444 235.784L96.8199 204.909C112.358 189.371 137.55 189.37 153.088 204.909C162.656 214.476 166.332 227.704 164.117 240.085C176.498 237.87 189.726 241.546 199.293 251.114C209.588 261.408 213.062 275.941 209.715 289.097C215.288 287.918 221.064 287.944 226.628 289.176C227.096 288.554 227.613 287.958 228.179 287.391C234.695 280.875 245.26 280.875 251.775 287.391C257.789 293.405 258.253 302.866 253.167 309.411C257.437 317.478 258.739 326.704 257.073 335.477C270.018 332.462 284.18 336 294.27 346.09C297.708 349.529 300.386 353.44 302.302 357.614C313.655 352 324.299 344.468 333.751 335.016C335.11 333.657 336.43 332.273 337.709 330.866L341.005 327.57C379.973 280.74 377.494 211.064 333.57 167.14L296.545 130.115C295.976 130.618 295.326 131.301 294.302 132.389L247.191 182.443C239.243 190.889 228.38 199.028 214.788 200.543C194.179 202.84 177.272 196.146 167.243 185.158C157.344 174.313 153.878 158.348 163.275 145.534L163.642 145.034L236.45 70.02L203.307 36.8774C156.756 -9.6734 81.2827 -9.67342 34.7318 36.8774ZM141.054 64.1336C134.538 57.6176 123.974 57.6176 117.458 64.1336L102.029 79.562L86.6011 64.1336C80.0851 57.6176 69.5207 57.6176 63.0047 64.1336C56.4888 70.6495 56.4888 81.214 63.0047 87.7299L78.4331 103.158L63.0047 118.587C56.4888 125.103 56.4888 135.667 63.0047 142.183C69.5207 148.699 80.0851 148.699 86.6011 142.183L102.029 126.755L117.458 142.183C123.974 148.699 134.538 148.699 141.054 142.183C147.57 135.667 147.57 125.103 141.054 118.587L125.626 103.158L141.054 87.7299C147.57 81.214 147.57 70.6495 141.054 64.1336ZM304.413 309.173C297.898 315.688 287.333 315.688 280.817 309.173C274.301 302.657 274.301 292.092 280.817 285.576C287.333 279.06 297.898 279.06 304.413 285.576C310.929 292.092 310.929 302.657 304.413 309.173ZM282.632 256.535C289.148 263.05 299.713 263.05 306.229 256.535C312.745 250.019 312.745 239.454 306.229 232.938C299.713 226.422 289.148 226.422 282.632 232.938C276.116 239.454 276.116 250.019 282.632 256.535ZM253.591 258.35C247.075 264.866 236.51 264.866 229.994 258.35C223.478 251.834 223.478 241.269 229.994 234.753C236.51 228.237 247.075 228.237 253.591 234.753C260.107 241.269 260.107 251.834 253.591 258.35Z" fill="#8AF7FF"/>
<path d="M285.597 364.346C284.581 362.345 283.237 360.469 281.564 358.796C273.043 350.275 259.228 350.275 250.708 358.796L239.953 369.551C255.285 370.771 270.808 369.036 285.597 364.346Z" fill="#FAB0FF"/>
<path d="M172.982 342.167C184.985 352.23 198.504 359.557 212.714 364.149L233.415 343.448C241.074 335.79 241.849 323.855 235.741 315.331C232.971 314.606 230.35 313.159 228.179 310.988C227.124 309.933 226.24 308.772 225.527 307.539C217.791 304.697 208.769 306.381 202.558 312.591L172.982 342.167Z" fill="#FAB0FF"/>
<path d="M155.712 325.552L186.587 294.676C195.108 286.155 195.108 272.34 186.587 263.819C178.067 255.298 164.251 255.298 155.731 263.819L124.855 294.695L155.712 325.552Z" fill="#FAB0FF"/>
<path d="M78.6501 248.49L109.507 279.347L140.382 248.471C148.903 239.95 148.903 226.135 140.382 217.614C131.862 209.093 118.046 209.093 109.526 217.614L78.6501 248.49Z" fill="#FAB0FF"/>
<path d="M261.636 69.7887L261.677 69.8283L177.467 156.59C174.746 160.726 174.948 166.945 180.515 173.045C186.149 179.217 197.09 184.436 212.797 182.685C220.314 181.848 227.498 177.15 234.107 170.128L281.217 120.074L281.362 119.919L281.45 119.823L281.613 119.646C283.535 117.564 287.857 112.877 294.19 111.808C300.975 110.662 307.931 112.958 313.556 115.573C319.46 118.317 325.465 122.175 330.874 125.967C340.578 132.772 348.488 133.022 353.997 128.13C361.61 121.369 369.915 112.683 377.365 104.89C381.001 101.088 384.433 97.4976 387.482 94.4483L387.492 94.4387C389.118 92.8129 391.364 91.8073 393.845 91.8073C398.807 91.8073 402.829 95.8297 402.829 100.792C402.829 103.273 401.823 105.519 400.198 107.144C397.691 109.651 394.594 112.888 391.164 116.472L391.162 116.475C383.458 124.525 374.076 134.33 365.928 141.566C358.111 148.507 349.366 150.31 341.011 149.17L346.276 154.434C382.116 190.275 393.977 241.015 381.858 286.717L465.087 203.489C511.638 156.938 511.638 81.4639 465.087 34.9131C418.536 -11.6377 343.062 -11.6377 296.511 34.9132L261.636 69.7887Z" fill="#FAB0FF"/>
<path d="M109.526 217.614C118.046 209.093 131.862 209.093 140.382 217.614C148.903 226.135 148.903 239.95 140.382 248.471L107.711 281.143C99.1897 289.664 85.3746 289.664 76.8538 281.143C68.3329 272.622 68.3329 258.807 76.8538 250.286L109.526 217.614Z" fill="#FAB0FF"/>
<path d="M155.731 263.819C164.251 255.298 178.067 255.298 186.587 263.819C195.108 272.34 195.108 286.155 186.587 294.676L143.025 338.238C134.504 346.759 120.689 346.759 112.168 338.238C103.647 329.718 103.647 315.903 112.168 307.382L155.731 263.819Z" fill="#FAB0FF"/>
<path d="M202.558 312.591C211.079 304.07 224.894 304.07 233.415 312.591C241.936 321.112 241.936 334.927 233.415 343.448L200.743 376.12C192.223 384.641 178.407 384.641 169.887 376.12C161.366 367.599 161.366 353.784 169.887 345.263L202.558 312.591Z" fill="#FAB0FF"/>
<path d="M250.708 358.796C259.228 350.275 273.043 350.275 281.564 358.796C290.085 367.317 290.085 381.132 281.564 389.653L256.153 415.064C247.632 423.585 233.817 423.585 225.296 415.064C216.775 406.544 216.775 392.728 225.296 384.208L250.708 358.796Z" fill="#FAB0FF"/>
</g>
<defs>
<clipPath id="clip0">
<rect width="500" height="422" fill="white"/>
</clipPath>
</defs>
</svg>
